 <svg version="1.1" xmlns="http://www.w3.org/2000/svg" xmlns:xlink="http://www.w3.org/1999/xlink" x="0px" y="0px"
	 viewBox="0 0 914 264.1" enable-background="new 0 0 914 264.1" xml:space="preserve">
<g id="Guides_For_Artboard_2_">
</g>
<g id="Guides_For_Artboard_1_">
</g>
<g id="Guides_For_Artboard">
</g>
<g>
<g id="text">
<rect x="786" y="101.1" fill="#58595B" width="10.4" height="67.1" />

<polygon fill="#58595B" points="885.6,101.1 823.5,101.1 823.5,111.4 849.4,111.4 849.4,168.2 859.7,168.2 859.7,111.4
			885.6,111.4 		" />

<polygon fill="#58595B" points="424.3,100.8 391.3,168.3 402.8,168.3 426.6,119.7 450.4,168.3 461.9,168.3 428.9,100.8 		" />

<polygon fill="#58595B" points="727.3,168.3 760.3,100.8 748.8,100.8 725,149.5 701.2,100.8 689.6,100.8 722.6,168.3 		" />

<g>
<polygon fill="#58595B" points="654.4,101.1 654.4,150.7 602.4,101 594.6,101 594.6,168.2 604.9,168.2 604.9,118.2 657,168.2
				664.8,168.2 664.8,168.1 664.8,101.1 			" />

		</g>
<polygon fill="#58595B" points="355.9,101 323.9,150.7 291.6,101 281.3,101 281.3,168.2 291.6,168.2 291.6,118.2 322.1,168.2
			325.8,168.2 356.7,118.2 356.7,168.2 367.1,168.2 367.1,101 		" />

<g>
<polygon fill="#58595B" points="549.5,101.1 549.5,150.7 497.5,101 489.7,101 489.7,168.2 500,168.2 500,118.2 552.1,168.2
				559.9,168.2 559.9,168.1 559.9,101.1 			" />

		</g>
	</g>
<g>
<g>
<g>
<path fill="#939598" d="M119,100.2l29.3,51.9H89.8L119,100.2z" />

			</g>
		</g>
<g>
<g>
<path fill="#FFD200" d="M169.2,70.5l30.6,53.4l-43.6,26.7l-32-56.5L169.2,70.5z" />

			</g>
		</g>
<g>
<g>
<path fill="#58595B" d="M181.1,76l20,11.9v23.2L181.1,76z" />

			</g>
		</g>
<g>
<g>
<path fill="#58595B" d="M138.8,218.1l-20.3,11.5l-20.2-11.5L138.8,218.1z" />

			</g>
		</g>
<g>
<g>
<path fill="#C7C8CA" d="M56.8,75.5L36.7,111V87.7L56.8,75.5z" />

			</g>
		</g>
<g>
<g>
<path fill="#FFD200" d="M151,159.7v51.3l-63.9,0v-51.2H151z" />

			</g>
		</g>
<g>
<g>
<path fill="#FFD200" d="M68.7,69.9l45,24.1l-31.8,56.6L38,124L68.7,69.9z" />

			</g>
		</g>
<g>
<g>
<path fill="#58595B" d="M201.1,131.9v50.8l-42.5,25.4v-50.2L201.1,131.9z" />

			</g>
		</g>
<g>
<g>
<path fill="#C7C8CA" d="M118.7,40.2l44,25.1L119,88.2L75.2,64.7L118.7,40.2z" />

			</g>
		</g>
<g>
<g>
<path fill="#C7C8CA" d="M36.7,132.1l42.8,25.8v50.1l-42.8-26.1V132.1z" />

			</g>
		</g>
	</g>
</g>
</svg>